<svg xmlns="http://www.w3.org/2000/svg" viewBox="0 0 640 640"><defs><style>.cls-1{fill:#009245;}</style></defs><path d="M247.49,52.62A273.57,273.57,0,0,0,53.31,246.8a.39.39,0,0,0,.74.23C84.37,157.89,158.57,83.68,247.72,53.36A.39.39,0,0,0,247.49,52.62Z"/><path d="M234.43,81.68A249.8,249.8,0,0,0,82.36,233.75a.39.39,0,0,0,.72.28A300.35,300.35,0,0,1,234.72,82.39.38.38,0,0,0,234.43,81.68Z"/><path d="M217.9,113.43a227.18,227.18,0,0,0-103.59,103.4.39.39,0,0,0,.68.38c26-40.86,61.14-76,103.3-103.1A.39.39,0,0,0,217.9,113.43Z"/><path d="M54.1,391.8A273.54,273.54,0,0,0,248.27,586a.39.39,0,0,0,.23-.74C159.36,554.92,85.16,480.72,54.84,391.57A.39.39,0,0,0,54.1,391.8Z"/><path d="M83.15,404.85A249.84,249.84,0,0,0,235.22,556.93a.39.39,0,0,0,.28-.72A300.35,300.35,0,0,1,83.86,404.57.38.38,0,0,0,83.15,404.85Z"/><path d="M114.91,421.38A227.18,227.18,0,0,0,218.3,525a.39.39,0,0,0,.38-.68c-40.86-26-76-61.14-103.1-103.3A.39.39,0,0,0,114.91,421.38Z"/><path d="M392.51,587.38A273.57,273.57,0,0,0,586.69,393.2.39.39,0,0,0,586,393c-30.32,89.14-104.52,163.35-193.67,193.67A.39.39,0,0,0,392.51,587.38Z"/><path d="M405.57,558.32A249.8,249.8,0,0,0,557.64,406.25a.39.39,0,0,0-.72-.28A300.35,300.35,0,0,1,405.28,557.61.38.38,0,0,0,405.57,558.32Z"/><path d="M422.1,526.57a227.18,227.18,0,0,0,103.59-103.4.39.39,0,0,0-.68-.38c-26,40.86-61.14,76-103.3,103.1A.39.39,0,0,0,422.1,526.57Z"/><path d="M585.9,248.2A273.54,273.54,0,0,0,391.73,54a.39.39,0,0,0-.23.74c89.14,30.32,163.34,104.52,193.66,193.67A.39.39,0,0,0,585.9,248.2Z"/><path d="M556.85,235.15A249.84,249.84,0,0,0,404.78,83.07a.39.39,0,0,0-.28.72A300.35,300.35,0,0,1,556.14,235.43.38.38,0,0,0,556.85,235.15Z"/><path d="M525.09,218.62A227.18,227.18,0,0,0,421.7,115a.39.39,0,0,0-.38.68c40.86,26,75.95,61.14,103.1,103.3A.39.39,0,0,0,525.09,218.62Z"/><path class="cls-1" d="M618.13,320c0-24.41-21.83-46.95-58.73-65.14A383.91,383.91,0,0,1,385.14,80.6C367,43.7,344.41,21.87,320,21.87S273.05,43.7,254.86,80.6A383.91,383.91,0,0,1,80.6,254.86C43.7,273.05,21.87,295.59,21.87,320S43.7,367,80.6,385.14A383.91,383.91,0,0,1,254.86,559.4c18.19,36.9,40.73,58.73,65.14,58.73S367,596.3,385.14,559.4A383.91,383.91,0,0,1,559.4,385.14C596.3,367,618.13,344.41,618.13,320Z"/><path d="M607.52,320c0-23.54-21-45.28-56.63-62.82A370.18,370.18,0,0,1,382.82,89.11C365.28,53.53,343.54,32.48,320,32.48s-45.28,21.05-62.82,56.63A370.18,370.18,0,0,1,89.11,257.18C53.53,274.72,32.48,296.46,32.48,320s21.05,45.28,56.63,62.82A370.18,370.18,0,0,1,257.18,550.89c17.54,35.58,39.28,56.63,62.82,56.63s45.28-21,62.82-56.63A370.18,370.18,0,0,1,550.89,382.82C586.47,365.28,607.52,343.54,607.52,320Z"/><path class="cls-1" d="M593,320c0-22.36-20-43-53.78-59.66A351.46,351.46,0,0,1,379.66,100.75C363,67,342.36,47,320,47s-43,20-59.66,53.78A351.46,351.46,0,0,1,100.75,260.34C67,277,47,297.64,47,320s20,43,53.78,59.66A351.46,351.46,0,0,1,260.34,539.25C277,573,297.64,593,320,593s43-20,59.66-53.78A351.46,351.46,0,0,1,539.25,379.66C573,363,593,342.36,593,320Z"/><path d="M572.9,320c0-20.71-18.52-39.83-49.82-55.26A325.56,325.56,0,0,1,375.26,116.92C359.83,85.62,340.71,67.1,320,67.1s-39.83,18.52-55.26,49.82A325.56,325.56,0,0,1,116.92,264.74C85.62,280.17,67.1,299.29,67.1,320s18.52,39.83,49.82,55.26A325.56,325.56,0,0,1,264.74,523.08c15.43,31.3,34.55,49.82,55.26,49.82s39.83-18.52,55.26-49.82A325.56,325.56,0,0,1,523.08,375.26C554.38,359.83,572.9,340.71,572.9,320Z"/><path class="cls-1" d="M513.31,320c0-15.83-14.16-30.44-38.08-42.24a248.87,248.87,0,0,1-113-113c-11.8-23.92-26.41-38.08-42.24-38.08s-30.44,14.16-42.24,38.08a248.87,248.87,0,0,1-113,113c-23.92,11.8-38.08,26.41-38.08,42.24s14.16,30.44,38.08,42.24a248.87,248.87,0,0,1,113,113c11.8,23.92,26.41,38.08,42.24,38.08s30.44-14.16,42.24-38.08a248.87,248.87,0,0,1,113-113C499.15,350.44,513.31,335.83,513.31,320Z"/><path d="M423.35,320c0-8.46-7.57-16.28-20.36-22.58A133.06,133.06,0,0,1,342.58,237c-6.3-12.79-14.12-20.36-22.58-20.36s-16.28,7.57-22.58,20.36A133.06,133.06,0,0,1,237,297.42c-12.79,6.3-20.36,14.12-20.36,22.58s7.57,16.28,20.36,22.58A133.06,133.06,0,0,1,297.42,403c6.3,12.79,14.12,20.36,22.58,20.36s16.28-7.57,22.58-20.36A133.06,133.06,0,0,1,403,342.58C415.78,336.28,423.35,328.46,423.35,320Z"/></svg>
